<svg width="80" height="64" viewBox="0 0 80 64" fill="none" xmlns="http://www.w3.org/2000/svg">
<path d="M47.8296 64C43.4296 64 39.663 62.4333 36.5296 59.3C33.3963 56.1667 31.8296 52.4 31.8296 48C31.8296 43.6 33.3963 39.8333 36.5296 36.7C39.663 33.5667 43.4296 32 47.8296 32C49.363 32 50.7796 32.1833 52.0796 32.55C53.3796 32.9167 54.6296 33.4667 55.8296 34.2V4C55.8296 2.86667 56.213 1.91667 56.9796 1.15C57.7463 0.383333 58.6963 0 59.8296 0H75.8296C76.963 0 77.913 0.383333 78.6796 1.15C79.4463 1.91667 79.8296 2.86667 79.8296 4V8C79.8296 9.13333 79.4463 10.0833 78.6796 10.85C77.913 11.6167 76.963 12 75.8296 12H63.8296V48C63.8296 52.4 62.263 56.1667 59.1296 59.3C55.9963 62.4333 52.2296 64 47.8296 64ZM19.6296 19.7C16.4296 22.9 13.8296 26.55 11.8296 30.65C9.82963 34.75 8.56296 39.1333 8.02963 43.8C7.8963 44.9333 7.4463 45.9167 6.67963 46.75C5.91296 47.5833 4.96296 48 3.82963 48C2.6963 48 1.7463 47.5667 0.97963 46.7C0.212963 45.8333 -0.103704 44.8333 0.0296296 43.7C0.562963 37.9 2.0463 32.4833 4.47963 27.45C6.91296 22.4167 10.063 17.9667 13.9296 14.1C17.7963 10.2333 22.2463 7.08333 27.2796 4.65C32.313 2.21667 37.7296 0.733333 43.5296 0.2C44.663 0.0666667 45.663 0.383333 46.5296 1.15C47.3963 1.91667 47.8296 2.86667 47.8296 4C47.8296 5.13333 47.413 6.08333 46.5796 6.85C45.7463 7.61667 44.763 8.06667 43.6296 8.2C38.963 8.73333 34.5963 9.98333 30.5296 11.95C26.463 13.9167 22.8296 16.5 19.6296 19.7ZM30.9296 31C29.1963 32.7333 27.7296 34.7167 26.5296 36.95C25.3296 39.1833 24.5296 41.5667 24.1296 44.1C23.9296 45.2333 23.4463 46.1667 22.6796 46.9C21.913 47.6333 20.963 48 19.8296 48C18.6963 48 17.763 47.5833 17.0296 46.75C16.2963 45.9167 15.9963 44.9333 16.1296 43.8C16.5963 40.2 17.613 36.85 19.1796 33.75C20.7463 30.65 22.763 27.8667 25.2296 25.4C27.6963 22.9333 30.4796 20.9167 33.5796 19.35C36.6796 17.7833 40.0296 16.7667 43.6296 16.3C44.763 16.1667 45.7463 16.4667 46.5796 17.2C47.413 17.9333 47.8296 18.8667 47.8296 20C47.8296 21.1333 47.463 22.0833 46.7296 22.85C45.9963 23.6167 45.063 24.1 43.9296 24.3C41.3963 24.7 39.0296 25.4833 36.8296 26.65C34.6296 27.8167 32.663 29.2667 30.9296 31Z" fill="white"/>
</svg>
